<svg width="94" height="59" viewBox="0 0 94 59" fill="none" xmlns="http://www.w3.org/2000/svg">
<path d="M32.1325 55.6048H38.4321C39.2679 55.6048 39.9991 55.2549 40.626 54.5549C41.2632 53.855 41.7543 53.296 42.099 52.8782C42.3706 52.5543 42.6266 52.3924 42.8669 52.3924C43.3474 52.3924 43.5877 52.6065 43.5877 53.0349C43.5877 53.1916 43.572 53.3222 43.5407 53.4266L42.3341 57.7047H27.6664C27.1858 57.7047 26.9456 57.4905 26.9456 57.0622C26.9456 56.6652 27.2067 56.3779 27.7291 56.2003C28.2514 56.0123 28.5126 55.6466 28.5126 55.1034V37.6934C28.5126 37.1606 28.2514 36.8001 27.7291 36.6121C27.2067 36.424 26.9456 36.1263 26.9456 35.7189C26.9456 35.2905 27.1858 35.0764 27.6664 35.0764H32.9787C33.4488 35.0764 33.6839 35.2905 33.6839 35.7189C33.6839 36.1263 33.4227 36.424 32.9004 36.6121C32.378 36.8001 32.1168 37.1606 32.1168 37.6934L32.1325 55.6048Z" fill="#D88F6E"/>
<path d="M57.1898 36.424C54.1392 36.4345 52.0028 37.4061 50.7805 39.3388C49.5582 41.2715 48.947 43.6221 48.947 46.3905C48.947 49.159 49.7149 51.5096 51.2506 53.4423C52.7968 55.3646 54.7765 56.3361 57.1898 56.357H57.2681C59.6187 56.357 61.5619 55.3437 63.0976 53.3169C64.6437 51.2589 65.4168 48.9814 65.4168 46.4846V46.3905C65.3959 43.8415 64.743 41.5431 63.458 39.4955C62.173 37.4479 60.0836 36.424 57.1898 36.424ZM57.1898 34.4182H57.3465C60.8358 34.4182 63.7819 35.489 66.1847 37.6307C68.4099 39.6261 69.5225 42.2431 69.5225 45.4816C69.5225 45.7742 69.5121 46.0667 69.4912 46.3592C69.2718 50.0261 67.9868 52.8782 65.6362 54.9153C63.2961 56.9525 60.4754 58.0651 57.1741 58.2532C56.9338 58.2636 56.6883 58.2688 56.4376 58.2688C53.4184 58.2688 50.7492 57.2294 48.4299 55.1504C46.0689 53.0401 44.8884 50.2925 44.8884 46.9077C44.8884 46.7196 44.8936 46.5263 44.904 46.3279C45.0294 42.7027 46.2151 39.8246 48.4613 37.6934C50.7074 35.5517 53.6169 34.46 57.1898 34.4182Z" fill="#D88F6E"/>
<path d="M83.0462 58.2845C79.7345 58.2845 76.7989 57.2294 74.2394 55.1191C71.6903 53.0087 70.4157 50.1045 70.4157 46.4062C70.4157 42.802 71.6537 39.9081 74.1297 37.7247C76.6161 35.5308 79.5883 34.4339 83.0462 34.4339C84.279 34.4339 85.5901 34.5749 86.9795 34.857C88.3794 35.1286 89.7689 35.7032 91.1479 36.5808L90.7562 40.0596C90.6726 40.4253 90.4375 40.6081 90.051 40.6081H89.9883C89.6958 40.5872 89.445 40.373 89.2361 39.9656C88.5884 38.5866 87.7944 37.6725 86.8542 37.2232C85.9139 36.774 84.6446 36.5494 83.0462 36.5494C80.8315 36.5494 78.8517 37.3277 77.1071 38.8843C75.3624 40.4305 74.4901 42.9378 74.4901 46.4062C74.4901 48.621 75.3102 50.7574 76.9504 52.8155C78.5906 54.8631 80.6277 55.9444 83.0619 56.0593C83.3126 56.0697 83.5477 56.075 83.7671 56.075C84.8954 56.075 85.8408 55.9287 86.6035 55.6362C87.4914 55.2914 88.2332 54.6019 88.8287 53.5677V50.6843C88.8182 50.4753 88.7085 50.3134 88.4996 50.1985C88.2384 50.0522 87.7996 49.8537 87.1833 49.603C86.5773 49.3523 86.2744 49.0545 86.2744 48.7098C86.2744 48.2815 86.5147 48.0673 86.9952 48.0673H93.2791C93.7597 48.0673 94 48.2815 94 48.7098C94 49.1172 93.7388 49.415 93.2164 49.603C92.6941 49.7911 92.4329 50.1515 92.4329 50.6843V57.0779C90.6047 57.1614 88.9593 57.3861 87.4967 57.7517C86.7236 57.9606 85.961 58.1017 85.2088 58.1748C84.4566 58.2479 83.7357 58.2845 83.0462 58.2845Z" fill="#D88F6E"/>
<path d="M32.6531 13.8462C32.8246 13.4541 32.9941 13.0601 33.1694 12.668C33.923 10.9714 35.0535 9.64049 36.7097 8.74883C37.9598 8.08372 39.3949 7.8517 40.7907 8.08904C42.2453 8.30771 43.519 9.0316 44.1464 10.4153C44.5108 11.2557 44.6901 12.1649 44.6721 13.0808C44.6532 14.4249 43.4606 15.4485 42.1059 15.4372C41.5025 15.4401 40.9023 15.3485 40.3272 15.1658C39.7902 14.9773 39.3362 14.2816 39.4944 13.669C39.632 13.1317 39.8618 12.6209 40.0239 12.0893C40.2669 11.2862 40.4007 10.4567 39.8731 9.72344C39.6515 9.47435 39.3543 9.30483 39.0272 9.24085C37.3107 8.83743 36.135 9.79319 35.1609 10.9827C34.5702 11.7544 34.0742 12.5942 33.6837 13.4842C33.2527 14.3394 32.9923 15.2704 32.9169 16.2252C32.8698 17.0169 32.7002 17.803 32.6964 18.5929C32.6719 22.5196 32.6964 26.4463 32.6757 30.3749C32.6757 30.8179 32.7774 30.9724 33.2409 30.9592C34.4167 30.9253 35.5961 30.9423 36.7737 30.9592C37.0469 30.9592 37.4256 30.8405 37.4351 31.3231C37.4445 31.8057 37.0714 31.7001 36.7926 31.7001C31.6287 31.7076 26.463 31.712 21.2955 31.7133C20.2385 31.7133 19.1683 31.7944 18.1263 31.6567C16.6341 31.4588 15.3585 30.8028 14.6614 29.3456C14.5954 29.208 14.4824 29.0911 14.4296 28.9497C14.3769 28.8083 14.3995 28.6707 14.2883 28.5312C13.2012 29.4738 12.6811 30.7934 11.2398 31.5361C9.94348 32.2091 8.47009 32.4787 7.00987 32.5201C5.18037 32.5635 3.26984 32.2053 1.82659 31.0818C-0.756577 29.0704 -0.468312 25.1927 1.86426 23.1078C2.9533 22.1331 4.24959 21.4903 5.57603 20.9059C6.5539 20.4724 7.51293 19.9973 8.49646 19.5769C9.71173 19.0585 10.9459 18.591 12.1649 18.0688C12.673 17.857 13.1601 17.5975 13.6195 17.2941C14.228 16.8831 14.3731 16.18 14.3731 15.5352C14.39 14.1904 14.3113 12.8461 14.1376 11.5124C13.9831 10.4643 13.4499 9.53304 12.4079 9.06176C12.0865 8.90699 11.7388 8.81426 11.383 8.78842C10.5219 8.75071 9.64391 8.68097 8.79793 8.80161C7.85585 8.93546 6.91378 9.18806 6.36737 10.108C5.94344 10.8093 5.97171 11.5539 6.09983 12.3174C6.21476 13.0092 6.37679 13.6954 6.43331 14.391C6.49361 15.1243 5.76068 16.0725 5.02775 16.1177C4.23877 16.1526 3.44841 16.0957 2.67257 15.9481C2.00558 15.8293 1.7531 15.2223 1.67962 14.6285C1.32351 11.8216 2.91373 9.85351 5.27269 8.81292C6.49738 8.27378 7.81252 8.09847 9.15215 7.9552C10.1919 7.86967 11.2381 7.90891 12.2685 8.07208C14.8159 8.40574 16.9902 9.47837 18.196 11.9064C18.5215 12.5565 18.7045 13.2686 18.733 13.9951C18.8291 18.5609 18.8574 23.1266 18.9214 27.6942C18.9214 28.2899 18.978 28.8856 18.9968 29.4813C18.9941 29.6774 19.0513 29.8696 19.1607 30.0324C19.2701 30.1951 19.4266 30.3205 19.6092 30.3918C20.2592 30.6275 20.9431 30.8857 21.6214 30.9102C23.613 30.9819 25.6083 30.9423 27.6017 30.9555C27.8655 30.9555 27.9785 30.848 27.9785 30.5992C27.9785 30.4578 27.9785 30.3164 27.9785 30.175V10.1928C27.9785 9.41051 27.9785 9.40862 27.206 9.40862C26.2489 9.40862 25.2917 9.40862 24.3327 9.40862C24.0369 9.40862 23.8089 9.38223 23.807 8.99012C23.8051 8.59802 24.0482 8.57352 24.3365 8.5754C26.8801 8.5754 29.4237 8.5754 31.9673 8.5754C32.4157 8.5754 32.5325 8.76391 32.5325 9.17298C32.5193 10.5699 32.5325 11.9686 32.5325 13.3674C32.5325 13.5182 32.5457 13.669 32.5514 13.8198L32.6531 13.8462ZM14.1263 18.1819C13.9622 18.2361 13.8012 18.299 13.6439 18.3705C12.7678 18.8285 11.8898 19.2885 11.0193 19.7579C10.1884 20.2047 9.35186 20.642 8.54356 21.1284C7.88943 21.5174 7.26016 21.9467 6.65941 22.414C6.0388 22.8728 5.54162 23.4784 5.21239 24.1766C4.94673 24.7704 4.86194 25.3812 4.70367 25.9901C4.50287 26.8658 4.56849 27.7817 4.89208 28.6198C5.66835 30.7764 7.04943 31.3325 9.0504 31.3872C9.35374 31.3872 9.6571 31.2401 9.96421 31.2232C10.5802 31.1671 11.1679 30.9384 11.6599 30.5634C12.5612 29.954 13.2211 29.0483 13.5252 28.0034C13.8229 27.0608 14.1169 26.1183 14.1527 25.1625C14.2356 22.9814 14.1885 20.7966 14.1904 18.6136C14.1792 18.4715 14.1578 18.3304 14.1263 18.1914V18.1819Z" fill="#7B442A"/>
<path d="M54.805 0C54.8414 0.230408 54.8653 0.462617 54.8766 0.695608C54.8766 2.69006 54.8766 4.68451 54.8766 6.67896C54.8766 7.3067 54.9218 7.35007 55.5436 7.35007H64.6572V8.04755C64.3821 8.06264 64.1052 8.08903 63.8301 8.09091H55.683C54.9539 8.09091 54.8766 8.17197 54.8766 8.91282C54.8766 17.0791 54.8578 25.2473 54.8955 33.4193C54.9181 34.5265 55.0756 35.6267 55.3646 36.6956C55.6347 37.8645 56.1391 38.9663 56.8474 39.9343C57.5747 40.8768 58.4264 41.6987 59.5832 42.1285C59.9393 42.2605 59.928 42.2907 59.8131 42.8091C58.9973 42.5734 58.1569 42.4038 57.3788 42.089C56.2294 41.6252 55.1046 41.0955 54.1305 40.2943C52.8832 39.2707 51.845 38.1208 51.1837 36.5976C50.4715 34.9595 50.2416 33.2874 50.2548 31.5248C50.2812 23.9541 50.2661 16.3835 50.2661 8.81291C50.2661 8.11542 50.251 8.09845 49.5596 8.09657C48.5704 8.09657 47.5812 8.09657 46.5939 8.09657C46.3546 8.09657 46.1116 8.11353 46.1116 7.74782C46.1116 7.38211 46.3132 7.35195 46.5996 7.35383C47.6057 7.35383 48.61 7.35383 49.6142 7.35383C50.2642 7.35383 50.2661 7.35383 50.2661 6.72232V0.437348L54.805 0Z" fill="#7B442A"/>
<path d="M79.2141 30.1882C79.3667 30.8593 79.329 31.0007 78.7242 31.2062C78.0535 31.4324 77.3526 31.57 76.6686 31.7585C75.1255 32.1808 73.556 32.0168 71.9959 31.9471C65.5126 31.6624 60.6722 25.3906 61.147 19.0453C61.5238 13.9423 65.392 9.28608 70.3341 7.97404C72.5386 7.36862 74.8756 7.45348 77.0304 8.21722C80.0808 9.34829 82.1326 11.831 82.9108 14.9433C83.1 15.6934 83.2379 16.4555 83.3234 17.2243C83.3931 17.8897 83.3441 17.8954 82.6734 17.8954H67.2234C66.5752 17.8954 66.5545 17.9067 66.5526 18.5458C66.5526 19.707 66.5225 20.8701 66.5526 22.0313C66.5601 22.922 66.6369 23.8107 66.7825 24.6894C67.1838 26.8045 67.8376 28.814 69.7105 30.143C70.3422 30.5747 71.048 30.8866 71.7924 31.0629C73.0077 31.3777 74.2305 31.3174 75.4345 31.21C76.5122 31.1138 77.6069 30.9027 78.598 30.3824C78.7979 30.3014 79.0039 30.2365 79.2141 30.1882V30.1882ZM66.6619 17.1263C66.905 17.1527 67.0274 17.1772 67.148 17.1772C70.5395 17.1772 73.931 17.1772 77.3092 17.1772C77.6974 17.1772 77.8349 17.0282 77.833 16.6512C77.833 15.8048 77.8481 14.9546 77.85 14.1101C77.85 12.6416 77.6502 11.2259 76.8476 9.94776C76.6557 9.61298 76.3985 9.32017 76.0914 9.08669C75.7842 8.85322 75.4334 8.68383 75.0595 8.58859C74.143 8.41822 73.2126 8.33365 72.2804 8.33598C71.1839 8.30205 70.2512 8.77521 69.4165 9.45009C68.1636 10.4643 67.587 11.863 67.229 13.3768C67.1216 13.8292 67.0237 14.2873 66.9577 14.7473C66.8428 15.5333 66.7599 16.3176 66.66 17.1263H66.6619Z" fill="#7B442A"/>
</svg>
