<svg xmlns="http://www.w3.org/2000/svg" width="178.641" height="48.118" viewBox="0 0 178.641 48.118"><defs><style>.a{fill:#1a1a1a;}</style></defs><g transform="translate(-287.81 -245.471)"><g transform="translate(383.961 252.297)"><path class="a" d="M427.889,272.732h.668a22.574,22.574,0,0,0,1.093,2.945,10.409,10.409,0,0,0,1.791,2.733,8.808,8.808,0,0,0,2.764,2.035,9.019,9.019,0,0,0,3.947.79,5.481,5.481,0,0,0,3.461-1.184,4.593,4.593,0,0,0,1.518-3.856,3.928,3.928,0,0,0-1.184-3.25,9.27,9.27,0,0,0-2.764-1.487l-4.737-1.64q-.911-.3-1.974-.759a7.206,7.206,0,0,1-1.974-1.276,6.213,6.213,0,0,1-1.487-2.095,7.989,7.989,0,0,1-.577-3.28,7.484,7.484,0,0,1,.668-3.158A8.052,8.052,0,0,1,433.687,255a9.846,9.846,0,0,1,3.492-.607,8.921,8.921,0,0,1,2.156.212q.819.214,1.427.425t1.093.425a2.851,2.851,0,0,0,1.154.212,1.061,1.061,0,0,0,.972-.485h.668V262.1h-.668a26.292,26.292,0,0,0-.972-2.582,10.313,10.313,0,0,0-1.306-2.217,5.3,5.3,0,0,0-1.882-1.518,5.975,5.975,0,0,0-2.642-.547,7,7,0,0,0-4.524,1.306,4.265,4.265,0,0,0-1.609,3.492,3.42,3.42,0,0,0,1.367,2.945,14.27,14.27,0,0,0,4.038,1.852l4.433,1.458a12.785,12.785,0,0,1,4.676,2.671,5.86,5.86,0,0,1,1.823,4.494,8.517,8.517,0,0,1-.638,3.218,7.807,7.807,0,0,1-1.883,2.764,9.6,9.6,0,0,1-3.036,1.914,10.814,10.814,0,0,1-4.1.728,10.4,10.4,0,0,1-2.46-.273q-1.125-.273-2.065-.577t-1.731-.577a4.486,4.486,0,0,0-1.458-.273,1.427,1.427,0,0,0-.972.273,2.561,2.561,0,0,0-.486.577h-.668v-8.5Z" transform="translate(-427.887 -254.392)"/></g><path class="a" d="M512.578,280.364V262.75q0-4.238-2.513-6.175a10.356,10.356,0,0,0-6.508-1.938,10.364,10.364,0,0,0-7.445,2.786,10.5,10.5,0,0,0-1.907,2.361q-.7,1.211-1.06,2h-.122V255.3h-9.747v.848h4.662v24.214h-5.526a6.866,6.866,0,0,1-3.7-.767c-.433-.325-.545-1.189-.545-2.361V262.818a9.983,9.983,0,0,0-.484-3.118,6.848,6.848,0,0,0-1.634-2.664,8.086,8.086,0,0,0-3.028-1.876,13.526,13.526,0,0,0-4.662-.7,14.01,14.01,0,0,0-4.087.545,8.888,8.888,0,0,0-2.966,1.483,6.4,6.4,0,0,0-1.787,2.149,5.617,5.617,0,0,0-.605,2.543,3.3,3.3,0,0,0,.485,1.876q.483.728,2.481.727a2.454,2.454,0,0,0,1.756-.575,1.886,1.886,0,0,0,.605-1.422,9.2,9.2,0,0,0-.181-1.484,11.244,11.244,0,0,1-.182-2.028,2.383,2.383,0,0,1,1.3-2.271,6.961,6.961,0,0,1,3.3-.7,5.826,5.826,0,0,1,2.422.423,3.1,3.1,0,0,1,1.393,1.242,5.5,5.5,0,0,1,.666,1.966,16.742,16.742,0,0,1,.181,2.6,7.533,7.533,0,0,1-.272,2.876c-.748,1.556-9.114,3.816-12.713,6.357A6.788,6.788,0,0,0,457.1,276.2a5.465,5.465,0,0,0,3.754,5.3,13.063,13.063,0,0,0,7.749.06,7.205,7.205,0,0,0,4.3-4.207h.122c.793,3.364,3.761,3.947,5.854,3.964,1.049.008,3.539-.038,3.539-.038h15.394v-.911h-4.662V266.744a12.865,12.865,0,0,1,.757-4.481,11.227,11.227,0,0,1,2.088-3.572,9.713,9.713,0,0,1,3.088-2.36,8.38,8.38,0,0,1,3.693-.848A4.049,4.049,0,0,1,506.251,257a6.354,6.354,0,0,1,1.119,3.875v19.492h-4.662v.911h14.53v-.911h-4.66Zm-39.619-7.919a13.74,13.74,0,0,1-1.06,5.449,5.3,5.3,0,0,1-1.876,2.119,5.706,5.706,0,0,1-3.24.848,4.378,4.378,0,0,1-4.3-3.451,7.8,7.8,0,0,1-.181-1.876,6.357,6.357,0,0,1,1.028-3.543c1.484-2.308,8.685-5.4,9.506-6.022h.12S472.962,270.931,472.959,272.445Z" transform="translate(-50.787 -2.112)"/><path class="a" d="M351.686,260.433a4.247,4.247,0,0,0-.969-1.6,5.233,5.233,0,0,0-1.695-1.15,5.959,5.959,0,0,0-2.422-.454,6.938,6.938,0,0,0-3.3.727,8.608,8.608,0,0,0-2.331,1.786,8.988,8.988,0,0,0-1.513,2.21,12.26,12.26,0,0,0-.787,2.058h-.122v-6.115H328.8v.848h4.662V283h-5.925a6.867,6.867,0,0,1-3.7-.767c-.433-.325-.545-1.189-.545-2.361V265.459a9.983,9.983,0,0,0-.484-3.118,6.847,6.847,0,0,0-1.634-2.664,8.086,8.086,0,0,0-3.028-1.876,13.527,13.527,0,0,0-4.662-.7,14.009,14.009,0,0,0-4.087.545,8.888,8.888,0,0,0-2.966,1.483,6.4,6.4,0,0,0-1.787,2.149,5.617,5.617,0,0,0-.605,2.543,3.3,3.3,0,0,0,.485,1.876q.483.728,2.481.727a2.454,2.454,0,0,0,1.756-.575,1.886,1.886,0,0,0,.605-1.422,9.207,9.207,0,0,0-.181-1.484,11.242,11.242,0,0,1-.182-2.028,2.383,2.383,0,0,1,1.3-2.271,6.961,6.961,0,0,1,3.3-.7,5.826,5.826,0,0,1,2.422.423,3.1,3.1,0,0,1,1.393,1.242,5.5,5.5,0,0,1,.666,1.967,16.747,16.747,0,0,1,.181,2.6,7.533,7.533,0,0,1-.272,2.876c-.748,1.556-9.114,3.816-12.713,6.357a6.788,6.788,0,0,0-3.058,5.419,5.466,5.466,0,0,0,3.755,5.3,13.063,13.063,0,0,0,7.749.06,7.206,7.206,0,0,0,4.3-4.208h.122c.793,3.364,3.761,3.947,5.854,3.964,1.049.008,2.455-.011,3.539-.06h16.4V283h-5.266V269.15a14.672,14.672,0,0,1,.635-4.51,13.311,13.311,0,0,1,1.573-3.36,7.6,7.6,0,0,1,2.028-2.118,3.749,3.749,0,0,1,2.058-.727q2.119,0,2.119,1.938a4.647,4.647,0,0,1-.122,1.21,5.631,5.631,0,0,1-.272.757q-.153.334-.273.666a2.62,2.62,0,0,0-.122.878q0,1.694,2.664,1.695a3.481,3.481,0,0,0,2.119-.666,3.151,3.151,0,0,0,.908-2.664A5.708,5.708,0,0,0,351.686,260.433Zm-33.6,14.651a13.741,13.741,0,0,1-1.06,5.449,5.3,5.3,0,0,1-1.876,2.119,5.706,5.706,0,0,1-3.24.848,4.378,4.378,0,0,1-4.3-3.451,7.808,7.808,0,0,1-.181-1.876,6.358,6.358,0,0,1,1.028-3.543c1.484-2.308,8.685-5.4,9.506-6.022h.12S318.087,273.571,318.084,275.085Z" transform="translate(-14.412 -2.732)"/><g transform="translate(339.19 245.471)"><path class="a" d="M369.373,253.766h4.662v-7.81c1.489-.083,3.239-.317,5.207-.485v8.295h10.875v.848H379.242v28.558c0,3.836,1.854,8.675,5.594,9.778,0,.214,0,.439,0,.64-2.852-.569-10.8-2.917-10.8-12.094V254.614h-4.662v-.848Z" transform="translate(-369.373 -245.471)"/></g><path class="a" d="M411.676,287.067a12.015,12.015,0,0,1-6.218,1.337,7.164,7.164,0,0,1-4.262-1.148,7.311,7.311,0,0,1-2.419-2.9,12.5,12.5,0,0,1-1.058-3.93,37.766,37.766,0,0,1-.242-4.171q0-.968.03-1.6c.021-.424.031-.836.031-1.24H416.16a12.374,12.374,0,0,0-1.119-5.561,10.831,10.831,0,0,0-2.78-3.6,10.719,10.719,0,0,0-3.6-1.964,11.993,11.993,0,0,0-8.947.574,14.534,14.534,0,0,0-7.224,7.558,13.157,13.157,0,0,0-1.058,5.17,14.6,14.6,0,0,0,1.028,5.592,12.555,12.555,0,0,0,2.9,4.323,12.745,12.745,0,0,0,4.444,2.78,15.746,15.746,0,0,0,5.593.968A12.878,12.878,0,0,0,411.677,288C411.676,287.756,411.676,287.383,411.676,287.067Zm-13.564-18.313a11.369,11.369,0,0,1,1.18-3.2,6.005,6.005,0,0,1,2.116-2.206,6.368,6.368,0,0,1,3.386-.816,6.767,6.767,0,0,1,2.146.332,3.849,3.849,0,0,1,1.693,1.119,5.534,5.534,0,0,1,1.088,2.116,12.174,12.174,0,0,1,.394,3.386v1.512a11.2,11.2,0,0,1-.122,1.572H397.6A25.2,25.2,0,0,1,398.112,268.753Z" transform="translate(-35.364 -3.807)"/></g></svg>